<?xml version="1.0" encoding="utf-8"?>
<!-- Svg Vector Icons : http://www.onlinewebfonts.com/icon -->
<!DOCTYPE svg PUBLIC "-//W3C//DTD SVG 1.1//EN" "http://www.w3.org/Graphics/SVG/1.1/DTD/svg11.dtd">
<svg version="1.1" xmlns="http://www.w3.org/2000/svg" xmlns:xlink="http://www.w3.org/1999/xlink" fill="#fff" x="0px" y="0px" viewBox="0 0 1000 1000" enable-background="new 0 0 1000 1000" xml:space="preserve">
<metadata> Svg Vector Icons : http://www.onlinewebfonts.com/icon </metadata>
<g><path d="M274.1,235.9c0,124.8,101.1,225.9,225.9,225.9c124.8,0,225.9-101.1,225.9-225.9S624.8,10,500,10C375.2,10,274.1,111.1,274.1,235.9L274.1,235.9z"/><path d="M250.3,534.8L117.9,648.6c-6.8,5.1-10.2,13.6-10.2,22.1v290.4c0,15.3,13.6,28.9,28.9,28.9H500h363.5c15.3,0,28.9-13.6,28.9-28.9l0-290.4c0-8.5-3.4-17-10.2-22.1L749.7,534.8c-10.2-8.5-23.8-10.2-35.7-1.7c-17,11.9-35.7,23.8-56,32.3l-47.6,310.8c-3.4,22.1-22.1,39.1-45.9,39.1h-66.2h-3.4h-66.2c-22.1,0-42.5-17-45.9-39.1l-47.6-312.5c-18.7-8.5-35.7-18.7-52.7-30.6C275.8,524.6,260.5,526.3,250.3,534.8z"/><path d="M484.7,876.2c8.5,6.8,20.4,6.8,28.9,0c0,0,44.2-32.3,44.2-40.8L534,684.3c-1.7-8.5-8.5-13.6-17-13.6h-35.7c-8.5,0-15.3,6.8-17,13.6l-23.8,151.2C442.3,843.9,484.7,876.2,484.7,876.2z"/><path d="M489.8,631.6c5.1,5.1,13.6,5.1,18.7,0l37.4-47.6l0,0c5.1-6.8,0-18.7-8.5-18.7h-76.4c-10.2,0-15.3,10.2-10.2,18.7c0,0,0,0,0,1.7L489.8,631.6z"/></g>
</svg>