<?xml version="1.0" encoding="UTF-8" standalone="no"?>
<!-- Created with Inkscape (http://www.inkscape.org/) -->

<svg
   version="1.1"
   id="svg9"
   width="94.869026"
   height="95.936226"
   viewBox="0 0 94.869028 95.936228"
   sodipodi:docname="G.svg"
   inkscape:version="1.1.1 (3bf5ae0d25, 2021-09-20)"
   xmlns:inkscape="http://www.inkscape.org/namespaces/inkscape"
   xmlns:sodipodi="http://sodipodi.sourceforge.net/DTD/sodipodi-0.dtd"
   xmlns="http://www.w3.org/2000/svg"
   xmlns:svg="http://www.w3.org/2000/svg">
  <defs
     id="defs13">
    <linearGradient
       id="linearGradient6032"
       inkscape:swatch="solid">
      <stop
         style="stop-color:#00b800;stop-opacity:1;"
         offset="0"
         id="stop6030" />
    </linearGradient>
    <linearGradient
       id="linearGradient5692"
       inkscape:swatch="solid">
      <stop
         style="stop-color:#00b800;stop-opacity:1;"
         offset="0"
         id="stop5690" />
    </linearGradient>
  </defs>
  <sodipodi:namedview
     id="namedview11"
     pagecolor="#ffffff"
     bordercolor="#666666"
     borderopacity="1.0"
     inkscape:pageshadow="2"
     inkscape:pageopacity="0.0"
     inkscape:pagecheckerboard="0"
     showgrid="false"
     inkscape:zoom="7.638889"
     inkscape:cx="16.952727"
     inkscape:cy="49.483635"
     inkscape:window-width="1920"
     inkscape:window-height="986"
     inkscape:window-x="-11"
     inkscape:window-y="-11"
     inkscape:window-maximized="1"
     inkscape:current-layer="g15" />
  <g
     inkscape:groupmode="layer"
     inkscape:label="Image"
     id="g15"
     transform="translate(-42.654514,-49.821567)">
    <path
       style="fill:#ffffff;stroke-width:0.32;fill-opacity:1"
       d="m 97.720164,145.16191 c 15.095786,-2.30494 28.572686,-12.42297 35.160726,-26.39756 3.17328,-6.73117 4.28431,-11.88206 4.56981,-21.18617 l 0.20375,-6.640001 H 113.92109 90.187737 l 0.08431,10.640001 0.08431,10.64 9.759993,0.16 9.76,0.16 -2.88,2.89429 c -3.26372,3.27991 -6.23308,5.04156 -10.578106,6.27569 -3.57066,1.0142 -8.873119,1.0142 -12.443778,0 -9.2912,-2.63902 -16.045798,-10.2493 -17.521452,-19.74108 l -0.371396,-2.3889 H 54.433522 42.785423 l 0.20449,2.16 c 1.153622,12.18569 5.610419,21.85223 13.915488,30.18189 10.870102,10.9023 25.356313,15.60216 40.814763,13.24184 z M 48.103346,93.738179 c 1.452039,-13.840576 8.150893,-25.112525 19.185479,-32.2828 7.02104,-4.562275 14.675872,-6.760592 23.387539,-6.716442 10.815216,0.05481 21.388616,4.413674 29.204046,12.039299 l 2.01156,1.962704 1.67219,-1.421353 c 0.91971,-0.781744 1.71443,-1.596909 1.76605,-1.811475 0.1386,-0.576125 -4.49345,-4.812855 -7.95642,-7.277373 -5.14103,-3.658771 -10.89671,-6.164448 -17.615666,-7.668819 -2.85982,-0.640311 -4.18952,-0.743258 -9.56176,-0.740292 -5.352707,0.0029 -6.715101,0.109303 -9.581203,0.747901 -9.458762,2.107514 -17.306871,6.413757 -23.930493,13.130624 -7.887485,7.998525 -12.72649,18.426583 -13.41903,28.918026 l -0.205952,3.120001 h 2.416918 2.416922 z m 8.939642,1.280001 c 0.07635,-0.396 0.30791,-1.943151 0.514579,-3.438111 1.746567,-12.633938 11.566208,-23.416373 24.478797,-26.878889 3.284797,-0.880819 9.333405,-1.190284 12.98856,-0.664537 6.673856,0.959949 13.265906,4.207497 18.447246,9.087952 l 1.67581,1.578493 1.76419,-1.507197 c 0.9703,-0.828957 1.76419,-1.60857 1.76419,-1.732471 0,-0.1239 -0.828,-1.029392 -1.84,-2.012208 -11.13883,-10.81759 -27.723644,-13.807539 -41.958889,-7.564448 -5.741485,2.51802 -11.261753,6.848727 -14.907417,11.695015 -4.456234,5.923805 -7.157984,12.794749 -7.737031,19.6764 l -0.208675,2.480001 h 2.43991 c 2.275815,0 2.449248,-0.0484 2.57873,-0.72 z m 9.153376,-0.25683 c 0,-3.443791 2.36137,-9.38903 5.077302,-12.783168 8.86378,-11.077174 24.940578,-12.386115 35.344334,-2.877664 l 1.7975,1.642819 1.69043,-1.536704 c 0.92974,-0.845187 1.76243,-1.588614 1.85043,-1.652061 0.31451,-0.226748 -3.97769,-3.997936 -6.04934,-5.315043 -2.73007,-1.735712 -5.29189,-2.840406 -8.670656,-3.738921 -3.47661,-0.924535 -10.181808,-1.002192 -13.44,-0.155655 -8.931456,2.320547 -15.748474,7.686925 -19.640378,15.460967 -1.397372,2.791241 -2.60992,6.844929 -2.923097,9.772259 l -0.231082,2.160001 h 2.597277 2.59728 z"
       id="path253"
       sodipodi:nodetypes="ssscccccccsssscccssssssscsssscssscccsssssscsssssscssssscssssssscccs" />
  </g>
</svg>
